<svg width="168" height="22" viewBox="0 0 168 22" fill="none" xmlns="http://www.w3.org/2000/svg">
<path d="M7.13 1.908C6.426 1.82 5.876 1.82 5.062 1.82H0.0900001V17H2.51V11.016H5.062C5.876 11.016 6.426 11.016 7.13 10.928C9.33 10.642 11.134 9.102 11.134 6.418C11.134 3.734 9.506 2.216 7.13 1.908ZM6.668 8.97C6.272 9.036 5.744 9.058 5.128 9.058H2.51V3.778H5.128C5.744 3.778 6.272 3.8 6.668 3.866C7.724 4.064 8.582 4.812 8.582 6.418C8.582 8.024 7.724 8.772 6.668 8.97ZM18.1597 5.032C17.5657 5.032 16.8837 5.274 16.3557 5.692L15.3657 7.298V5.318H12.9457V17H15.3657V10.928C15.3657 8.046 16.7517 6.902 18.9737 7.056V5.164C18.7317 5.076 18.4897 5.032 18.1597 5.032ZM30.5622 10.862C30.5622 7.562 28.7362 5.01 25.3482 5.01C21.9822 5.01 19.6282 7.496 19.6282 11.192C19.6282 15.328 21.9822 17.308 25.1062 17.308C27.6582 17.308 29.8802 15.988 30.3862 13.216H27.9442C27.7022 14.69 26.6022 15.548 25.1942 15.548C23.6102 15.548 22.3342 14.624 22.1362 11.83H30.5182C30.5622 11.412 30.5622 11.082 30.5622 10.862ZM25.2602 6.77C26.9542 6.77 27.9002 7.98 28.0762 10.136H22.1582C22.4222 7.892 23.6102 6.77 25.2602 6.77ZM39.2198 5.01C38.0318 5.01 36.8218 5.34 36.1618 5.89L35.2818 7.144V5.318H32.8618V21.312H35.2818V15.416L36.0518 16.582C36.6458 17.044 37.8558 17.308 38.8238 17.308C41.8378 17.308 44.4778 15.24 44.4778 10.95C44.4778 7.54 42.5638 5.01 39.2198 5.01ZM38.5378 15.548C36.9977 15.548 35.2818 14.492 35.2818 11.632V11.038C35.2818 7.914 36.8438 6.77 38.6478 6.77C40.7598 6.77 41.9258 8.64 41.9258 11.17C41.9258 14.074 40.4738 15.548 38.5378 15.548ZM53.3652 17H55.7632C55.5872 15.702 55.5432 14.91 55.5432 14.03V9.916C55.5432 9.366 55.5212 8.75 55.4772 8.266C55.2792 6.286 54.0912 5.01 51.0772 5.01C48.4152 5.01 46.5012 6.462 46.3472 9.014H48.7672C48.8992 7.562 49.6252 6.77 51.0332 6.77C52.4192 6.77 53.0132 7.43 53.0792 8.376C53.1232 8.816 53.1232 9.212 53.1232 9.652V9.938H52.3752C47.9532 9.938 45.8852 11.346 45.8852 13.942C45.8852 16.12 47.5792 17.308 49.6472 17.308C50.7472 17.308 51.7592 17.11 52.5512 16.56L53.1452 15.306L53.3652 17ZM50.5272 15.548C49.2512 15.548 48.4372 14.976 48.4372 13.744C48.4372 11.962 50.2852 11.324 53.1232 11.544V12.622C53.1232 14.514 52.0452 15.548 50.5272 15.548ZM59.8315 1.248C59.0175 1.248 58.4235 1.842 58.4235 2.634C58.4235 3.448 59.0175 4.042 59.8315 4.042C60.6455 4.042 61.2615 3.448 61.2615 2.634C61.2615 1.842 60.6455 1.248 59.8315 1.248ZM61.0415 17V5.318H58.6215V17H61.0415ZM74.879 0.83H72.459V6.902L71.689 5.736C71.095 5.274 69.885 5.01 68.917 5.01C65.903 5.01 63.263 7.078 63.263 11.346C63.263 14.778 65.177 17.308 68.521 17.308C69.709 17.308 70.919 16.956 71.579 16.428L72.459 15.152V17H74.879V0.83ZM69.071 15.548C66.981 15.548 65.815 13.678 65.815 11.148C65.815 8.244 67.267 6.77 69.181 6.77C70.743 6.77 72.459 7.826 72.459 10.664V11.28C72.459 14.404 70.897 15.548 69.071 15.548Z" fill="#2A2A2A"/>
<path d="M92.4109 1.82H89.3749L87.7469 11.126C87.6589 11.566 87.5929 11.896 87.5049 12.226C86.9769 14.294 85.8109 15.042 83.8969 15.042C82.1809 15.042 81.1029 14.162 81.1029 12.622C81.1029 12.138 81.1469 11.786 81.2789 11.06L82.9069 1.82H79.8709L78.3529 10.378C78.1549 11.566 78.0669 12.204 78.0669 12.952C78.0669 15.57 79.8709 17.308 83.6329 17.308C87.8569 17.308 89.7709 15.416 90.4749 12.468C90.6509 11.786 90.7389 11.324 90.8709 10.576L92.4109 1.82ZM101.192 4.988C100.07 4.988 99.1677 5.208 98.2217 5.802L97.0777 7.078L97.3857 5.296H94.3717L92.3037 17H95.3397L96.2637 11.698C96.8357 8.442 98.1777 7.144 99.6957 7.122C101.082 7.122 101.588 7.87 101.588 8.948C101.588 9.388 101.5 10.004 101.346 10.862L100.246 17H103.282L104.47 10.312C104.69 9.146 104.756 8.596 104.756 7.98C104.756 6.22 103.59 4.988 101.192 4.988ZM110.324 0.94C109.114 0.94 108.432 1.842 108.432 2.788C108.432 3.624 108.982 4.152 109.884 4.152C111.094 4.152 111.776 3.25 111.776 2.304C111.776 1.49 111.226 0.94 110.324 0.94ZM109.004 17L111.072 5.296H108.058L105.968 17H109.004ZM124.66 5.296H121.294L116.784 14.536L115.53 5.296H112.142L114.584 17H118.082L124.66 5.296ZM127.163 11.94H135.435C135.655 11.236 135.809 10.356 135.809 9.608C135.809 7.012 134.159 4.988 130.881 4.988C126.547 4.988 124.039 8.53 124.039 12.556C124.039 15.856 126.217 17.308 129.011 17.308C131.849 17.308 134.181 15.922 135.127 13.194H132.091C131.673 14.448 130.595 15.174 129.297 15.174C128.043 15.174 127.141 14.426 127.141 12.534L127.163 11.94ZM130.573 7.122C131.959 7.122 132.729 8.002 132.729 9.454C132.729 9.608 132.729 9.762 132.707 9.96H127.493C127.999 8.332 128.989 7.122 130.573 7.122ZM144.765 5.01C144.105 5.01 143.269 5.274 142.631 5.802L141.377 7.474L141.751 5.34H138.715L136.669 17H139.705L140.651 11.632C141.289 8.112 143.137 7.342 145.161 7.54L145.601 5.098C145.337 5.032 145.095 5.01 144.765 5.01ZM150.441 5.032C147.229 5.032 145.579 6.726 145.579 8.706C145.579 10.664 146.833 11.412 148.703 12.028C150.573 12.666 151.167 13.15 151.167 13.986C151.167 14.91 150.419 15.438 149.407 15.438C148.307 15.438 147.449 14.932 147.317 13.568H144.281C144.391 15.834 145.997 17.44 149.253 17.44C152.333 17.44 154.357 15.988 154.357 13.7C154.357 11.874 153.301 10.884 151.013 10.158C149.385 9.63 148.769 9.234 148.769 8.332C148.769 7.628 149.253 7.034 150.331 7.034C151.277 7.034 151.783 7.65 151.893 8.728H154.907C154.819 6.594 153.521 5.032 150.441 5.032ZM158.853 11.94H167.125C167.345 11.236 167.499 10.356 167.499 9.608C167.499 7.012 165.849 4.988 162.571 4.988C158.237 4.988 155.729 8.53 155.729 12.556C155.729 15.856 157.907 17.308 160.701 17.308C163.539 17.308 165.871 15.922 166.817 13.194H163.781C163.363 14.448 162.285 15.174 160.987 15.174C159.733 15.174 158.831 14.426 158.831 12.534L158.853 11.94ZM162.263 7.122C163.649 7.122 164.419 8.002 164.419 9.454C164.419 9.608 164.419 9.762 164.397 9.96H159.183C159.689 8.332 160.679 7.122 162.263 7.122Z" fill="#00CE88"/>
</svg>
