<svg width="35" height="35" viewBox="0 0 35 35" fill="none" xmlns="http://www.w3.org/2000/svg">
<path d="M17.5 17.5C24.1447 17.5 29.5312 14.5619 29.5312 10.9375C29.5312 7.31313 24.1447 4.375 17.5 4.375C10.8553 4.375 5.46875 7.31313 5.46875 10.9375C5.46875 14.5619 10.8553 17.5 17.5 17.5Z" stroke="#00CE88" stroke-width="2" stroke-linecap="round" stroke-linejoin="round"/>
<path d="M5.46875 10.9375V17.5C5.46875 21.123 10.8555 24.0625 17.5 24.0625C24.1445 24.0625 29.5312 21.123 29.5312 17.5V10.9375" stroke="#00CE88" stroke-width="2" stroke-linecap="round" stroke-linejoin="round"/>
<path d="M5.46875 17.5V24.0625C5.46875 27.6855 10.8555 30.625 17.5 30.625C24.1445 30.625 29.5312 27.6855 29.5312 24.0625V17.5" stroke="#00CE88" stroke-width="2" stroke-linecap="round" stroke-linejoin="round"/>
</svg>
