<svg width="35" height="35" viewBox="0 0 35 35" fill="none" xmlns="http://www.w3.org/2000/svg">
<path d="M32.9082 16.6524L29.5312 18.334L25.1562 9.9668L28.5742 8.25782C28.8282 8.12834 29.1231 8.10455 29.3946 8.19163C29.6661 8.27871 29.8921 8.46959 30.0234 8.72266L33.3867 15.1621C33.4549 15.291 33.4967 15.4323 33.5095 15.5775C33.5223 15.7228 33.5059 15.8692 33.4613 16.008C33.4167 16.1469 33.3448 16.2754 33.2499 16.3861C33.1549 16.4967 33.0387 16.5872 32.9082 16.6524V16.6524Z" stroke="#00CE88" stroke-width="2" stroke-linecap="round" stroke-linejoin="round"/>
<path d="M5.46875 18.1973L2.09179 16.502C1.96177 16.4382 1.84588 16.349 1.75103 16.2396C1.65618 16.1302 1.58429 16.0028 1.53965 15.8651C1.49501 15.7273 1.47853 15.582 1.49117 15.4378C1.50382 15.2935 1.54535 15.1533 1.61328 15.0254L4.97656 8.58596C5.10813 8.33307 5.33323 8.14154 5.60392 8.05216C5.87461 7.96278 6.16949 7.98262 6.42578 8.10744L9.84375 9.81643L5.46875 18.1973Z" stroke="#00CE88" stroke-width="2" stroke-linecap="round" stroke-linejoin="round"/>
<path d="M29.5312 18.334L27.3438 20.9043L22.3125 25.9355C22.1754 26.0638 22.0092 26.1569 21.8283 26.2069C21.6473 26.2569 21.4569 26.2623 21.2734 26.2227L13.3437 24.2402C13.1989 24.1999 13.0639 24.13 12.9473 24.0352L5.46875 18.1973" stroke="#00CE88" stroke-width="2" stroke-linecap="round" stroke-linejoin="round"/>
<path d="M27.3437 20.9043L21.3281 16.5293L19.5781 17.8418C18.8199 18.4077 17.8992 18.7134 16.9531 18.7134C16.0071 18.7134 15.0863 18.4077 14.3281 17.8418L13.5898 17.2813C13.465 17.1863 13.3617 17.066 13.2869 16.9282C13.2121 16.7904 13.1673 16.6382 13.1557 16.4818C13.1441 16.3254 13.1658 16.1683 13.2194 16.021C13.273 15.8736 13.3574 15.7393 13.4668 15.627L18.8262 10.2813C18.9268 10.1811 19.0463 10.1017 19.1777 10.0478C19.309 9.99382 19.4498 9.96631 19.5918 9.9668H25.1562" stroke="#00CE88" stroke-width="2" stroke-linecap="round" stroke-linejoin="round"/>
<path d="M9.92578 9.81643L16.9395 7.76564C17.1887 7.69418 17.4552 7.71356 17.6914 7.82033L22.4219 9.96682" stroke="#00CE88" stroke-width="2" stroke-linecap="round" stroke-linejoin="round"/>
<path d="M15.3125 29.1074L11.1973 28.0684C11.0296 28.0305 10.8743 27.9505 10.7461 27.8359L7.65625 25.1562" stroke="#00CE88" stroke-width="2" stroke-linecap="round" stroke-linejoin="round"/>
</svg>
