<svg width="35" height="35" viewBox="0 0 35 35" fill="none" xmlns="http://www.w3.org/2000/svg">
<path d="M17.5 24.0625C23.5406 24.0625 28.4375 19.1656 28.4375 13.125C28.4375 7.08439 23.5406 2.1875 17.5 2.1875C11.4594 2.1875 6.5625 7.08439 6.5625 13.125C6.5625 19.1656 11.4594 24.0625 17.5 24.0625Z" stroke="#00CE88" stroke-width="2" stroke-linecap="round" stroke-linejoin="round"/>
<path d="M17.5 19.6875C21.1244 19.6875 24.0625 16.7494 24.0625 13.125C24.0625 9.50063 21.1244 6.5625 17.5 6.5625C13.8756 6.5625 10.9375 9.50063 10.9375 13.125C10.9375 16.7494 13.8756 19.6875 17.5 19.6875Z" stroke="#00CE88" stroke-width="2" stroke-linecap="round" stroke-linejoin="round"/>
<path d="M24.0625 21.875V32.8125L17.5 29.5312L10.9375 32.8125V21.875" stroke="#00CE88" stroke-width="2" stroke-linecap="round" stroke-linejoin="round"/>
</svg>
