<svg width="80" height="80" viewBox="0 0 80 80" fill="none" xmlns="http://www.w3.org/2000/svg">
<g clip-path="url(#clip0_9_297)">
<path d="M19.8844 45.4035C19.3413 46.6082 19.0807 47.1456 18.3812 48.2097C17.4053 49.6966 16.0292 51.5458 14.3241 51.5625C12.8084 51.5763 12.4189 50.5772 10.3625 50.5876C8.30661 50.5985 7.87744 51.5798 6.36258 51.566C4.65747 51.5505 3.35346 49.8797 2.37673 48.3941C-0.352784 44.2388 -0.638377 39.3625 1.04457 36.7706C2.24082 34.9291 4.12868 33.8512 5.90403 33.8512C7.71158 33.8512 8.84755 34.8418 10.3411 34.8418C11.7907 34.8418 12.6734 33.8496 14.7632 33.8496C16.3421 33.8496 18.0153 34.7105 19.2082 36.1948C15.3021 38.3352 15.9373 43.9117 19.8844 45.4035Z" fill="#AEAEAE"/>
<path d="M13.1788 32.1879C13.9377 31.2137 14.5143 29.8385 14.3052 28.4324C13.0646 28.5181 11.6138 29.3072 10.7675 30.3354C9.99898 31.2686 9.36463 32.6529 9.61091 33.9988C10.9652 34.0402 12.366 33.2316 13.1788 32.1879Z" fill="#AEAEAE"/>
<path d="M26.8138 38.7994C26.8138 39.6436 26.172 40.3243 25.1673 40.3243C24.2035 40.3243 23.5617 39.6423 23.5818 38.7994C23.5617 37.9171 24.2036 37.2549 25.1875 37.2549C26.1713 37.2549 26.7942 37.9171 26.8138 38.7994ZM23.663 51.3447V41.529H26.714V51.3447H23.663ZM31.8715 40.3853H28.2389V37.8163H38.6354V40.3853H34.9425V51.3447H31.8707L31.8715 40.3853ZM48.3292 48.1939C48.3292 49.4779 48.3698 50.5216 48.4087 51.3453H45.7595L45.619 49.9605H45.5579C45.1766 50.5622 44.2529 51.5668 42.4863 51.5668C40.499 51.5668 39.034 50.3212 39.034 47.2907V41.5311H42.1052V46.8099C42.1052 48.2348 42.5667 49.0973 43.6305 49.0973C44.4742 49.0973 44.9555 48.5157 45.1557 48.034C45.2352 47.8534 45.2548 47.6126 45.2548 47.3717V41.5311H48.3268V48.1943H48.3292V48.1939ZM50.7769 44.6598C50.7769 43.4347 50.7368 42.3912 50.6971 41.5294H53.3463L53.4868 42.8744H53.5478C53.9488 42.2527 54.9515 41.3089 56.5784 41.3089C58.5858 41.3089 60.0898 42.6336 60.0898 45.5236V51.3447H57.0396V45.905C57.0396 44.6414 56.5977 43.7777 55.4947 43.7777C54.6509 43.7777 54.1495 44.3605 53.9496 44.9203C53.8698 45.121 53.8298 45.4021 53.8298 45.6831V51.3431H50.7786V44.6602L50.7769 44.6598ZM64.8866 47.4107C64.9869 48.6751 66.2317 49.2776 67.6566 49.2776C68.7003 49.2776 69.5436 49.1371 70.3657 48.8766L70.7674 50.9429C69.7644 51.3447 68.5397 51.5648 67.2142 51.5648C63.8818 51.5648 61.976 49.6185 61.976 46.5465C61.976 44.0574 63.5214 41.3089 66.9333 41.3089C70.1052 41.3089 71.3089 43.7764 71.3089 46.2066C71.3089 46.7284 71.2483 47.1904 71.2095 47.4103L64.8866 47.4107ZM68.4794 45.3221C68.4794 44.5804 68.1575 43.3352 66.753 43.3352C65.4685 43.3352 64.9469 44.4989 64.8657 45.3221H68.4794ZM73.1149 48.6751C73.6781 49.015 74.8412 49.4168 75.7443 49.4168C76.6679 49.4168 77.0493 49.095 77.0493 48.5936C77.0493 48.0923 76.7478 47.8515 75.6038 47.4697C73.5764 46.7878 72.7937 45.6838 72.8142 44.5394C72.8142 42.6929 74.3797 41.3073 76.809 41.3073C77.9526 41.3073 78.9778 41.5687 79.5791 41.8702L79.0366 43.9779C78.5942 43.7371 77.7526 43.4151 76.9093 43.4151C76.1675 43.4151 75.7453 43.7165 75.7453 44.2178C75.7453 44.6799 76.1267 44.9211 77.3308 45.3421C79.1978 45.984 79.9804 46.9281 80.0005 48.3727C80.0005 50.1995 78.5555 51.5644 75.7453 51.5644C74.4617 51.5644 73.3154 51.2625 72.5737 50.8606L73.1149 48.6751Z" fill="#AEAEAE"/>
</g>
<defs>
<clipPath id="clip0_9_297">
<rect width="80" height="80" fill="white"/>
</clipPath>
</defs>
</svg>
