<svg width="65" height="65" viewBox="0 0 65 65" fill="none" xmlns="http://www.w3.org/2000/svg">
<g clip-path="url(#clip0_9_291)">
<path d="M43.2382 32.5254C44.8645 32.5282 46.4551 32.0485 47.8087 31.147C49.1623 30.2454 50.218 28.9626 50.8423 27.4609C51.4666 25.9592 51.6314 24.306 51.3158 22.7106C51.0003 21.1151 50.2185 19.6492 49.0695 18.4982C47.9205 17.3472 46.4559 16.563 44.861 16.2447C43.2661 15.9264 41.6127 16.0883 40.1099 16.71C38.6071 17.3318 37.3225 18.3853 36.4186 19.7374C35.5148 21.0894 35.0324 22.6792 35.0323 24.3055C35.033 26.4829 35.8974 28.5712 37.4357 30.1121C38.974 31.6531 41.0608 32.521 43.2382 32.5254ZM43.2584 18.1139C44.48 18.1118 45.6747 18.4721 46.6915 19.1492C47.7083 19.8263 48.5014 20.7897 48.9705 21.9177C49.4396 23.0456 49.5636 24.2873 49.3268 25.4858C49.09 26.6842 48.5031 27.7855 47.6403 28.6503C46.7774 29.515 45.6775 30.1045 44.4796 30.344C43.2817 30.5835 42.0397 30.4623 40.9107 29.9958C39.7817 29.5293 38.8164 28.7384 38.137 27.7232C37.4576 26.7079 37.0946 25.514 37.0939 24.2924C37.0929 23.4818 37.2515 22.679 37.5608 21.9298C37.8701 21.1806 38.324 20.4996 38.8966 19.9258C39.4691 19.3521 40.1491 18.8967 40.8976 18.5858C41.6462 18.2749 42.4487 18.1146 43.2592 18.1139H43.2584Z" fill="#AEAEAE"/>
<path d="M19.9462 51.4019C21.2146 51.9274 22.6103 52.0653 23.957 51.7983C25.3038 51.5312 26.5412 50.8712 27.5131 49.9014C28.485 48.9317 29.1478 47.6957 29.4179 46.3496C29.6879 45.0034 29.5531 43.6075 29.0304 42.3379C28.3491 40.6663 27.0404 39.328 25.3846 38.6094C23.7287 37.8908 21.8573 37.8491 20.1711 38.4932L24.3153 40.2078C25.5523 40.7398 26.5297 41.7381 27.0355 42.986C27.5412 44.234 27.5345 45.6311 27.0168 46.8742C26.4991 48.1173 25.5121 49.1061 24.27 49.6262C23.0279 50.1462 21.6308 50.1555 20.3819 49.6521L16.3738 47.9946C17.1049 49.5312 18.3768 50.7443 19.9462 51.4019Z" fill="#AEAEAE"/>
<path d="M32.5957 3.82519e-07C24.3692 -0.00126253 16.4498 3.12472 10.4421 8.7446C4.43436 14.3645 0.787596 22.058 0.240662 30.2663C0.247689 30.2733 0.247689 30.2795 0.253837 30.2865L17.68 37.4655C18.1583 37.1486 18.6667 36.8797 19.1978 36.6626C20.3987 36.1617 21.6952 35.9317 22.9951 35.9889L30.9224 24.469V24.3056C30.928 21.8706 31.655 19.4918 33.0117 17.4698C34.3685 15.4478 36.294 13.8731 38.5451 12.9448C40.7962 12.0165 43.272 11.7762 45.6596 12.2541C48.0473 12.732 50.2398 13.9068 51.9601 15.6301C53.6805 17.3534 54.8515 19.5479 55.3254 21.9364C55.7992 24.3248 55.5546 26.8002 54.6225 29.0497C53.6903 31.2992 52.1124 33.2221 50.0881 34.5753C48.0637 35.9286 45.6837 36.6516 43.2487 36.653C43.1538 36.653 43.0581 36.6459 42.9694 36.6459L31.6155 44.7534C31.6768 46.9891 30.9027 49.1674 29.4443 50.863C27.9858 52.5586 25.9478 53.6497 23.7281 53.9234C21.5084 54.1972 19.2663 53.6337 17.4397 52.3432C15.6131 51.0527 14.333 49.1277 13.8494 46.9441L1.57404 41.8749C3.32398 47.6198 6.63491 52.7658 11.1378 56.7394C15.6407 60.713 21.1586 63.358 27.0765 64.3797C32.9944 65.4014 39.0798 64.7596 44.6543 62.5258C50.2289 60.292 55.0736 56.554 58.6484 51.7285C62.2233 46.9029 64.3878 41.1794 64.9008 35.1959C65.4138 29.2124 64.255 23.204 61.5536 17.8404C58.8523 12.4768 54.7145 7.96877 49.6015 4.81874C44.4885 1.66872 38.6012 0.000489782 32.5957 3.82519e-07Z" fill="#AEAEAE"/>
</g>
<defs>
<clipPath id="clip0_9_291">
<rect width="65" height="65" fill="white"/>
</clipPath>
</defs>
</svg>
