<svg width="80" height="80" viewBox="0 0 80 80" fill="none" xmlns="http://www.w3.org/2000/svg">
<g clip-path="url(#clip0_9_279)">
<path fill-rule="evenodd" clip-rule="evenodd" d="M11.3325 49.5641C5.24434 49.5624 1.17661 45.2486 1.17661 40.0175C1.17661 34.786 5.25472 30.4224 11.3237 30.4361H68.6767C74.7457 30.4224 78.8238 34.786 78.8238 40.0175C78.8238 45.2486 74.7552 49.5624 68.6667 49.5641H11.3325Z" fill="#AEAEAE"/>
<path fill-rule="evenodd" clip-rule="evenodd" d="M11.3516 32.7896C6.53178 32.7979 3.5726 36.0197 3.5726 40.0045C3.5726 43.9888 6.51269 47.236 11.3516 47.2182H68.6476C73.4861 47.236 76.4278 43.9888 76.4278 40.0045C76.4278 36.0197 73.4682 32.7983 68.6476 32.7896H11.3516Z" fill="white"/>
<path fill-rule="evenodd" clip-rule="evenodd" d="M8.88003 35.4816H11.684L15.5666 41.7603L15.5645 35.4816H18.3473V44.487H15.5683L11.6661 38.208V44.487H8.87878L8.88003 35.4816ZM33.4823 36.4088H36.1925V37.6203H37.6588V38.5097H36.1925L36.1942 44.487H33.4823L33.4836 38.5097H32.0119V37.6211H33.4844L33.4823 36.4088ZM19.8979 38.4989H22.606V44.487H19.8979V38.4989ZM19.8921 35.48H22.606V37.3211H19.8921V35.48ZM68.438 41.4448C68.438 41.4448 68.4364 42.3488 68.4364 42.7128C68.4364 43.6669 67.8732 44.0616 67.3291 44.0616C66.7874 44.0616 66.2201 43.6669 66.2201 42.7128C66.2201 42.3488 66.2218 41.4224 66.2218 41.4224C66.2218 41.4224 66.2242 40.5372 66.2242 40.1732C66.2242 39.2227 66.7891 38.8318 67.3291 38.8318C67.869 38.8318 68.4364 39.2227 68.4364 40.1732C68.4364 40.5372 68.4364 41.2074 68.438 41.449V41.4448ZM67.3502 38.0897C65.1655 38.0897 63.3946 39.5954 63.3946 41.4531C63.3946 43.3096 65.1659 44.8149 67.3502 44.8149C69.5374 44.8149 71.3084 43.3096 71.3084 41.4531C71.3084 39.5954 69.5374 38.0897 67.3502 38.0897ZM59.8394 35.4816H62.5118V44.4854H59.8352L59.8336 44.1409C58.7985 44.7908 57.6273 44.7892 56.7159 44.3654C56.4718 44.2513 54.8636 43.4793 54.8636 41.3971C54.8636 39.815 56.356 38.0897 58.3063 38.2607C58.9491 38.318 59.4053 38.5521 59.839 38.7948L59.8394 35.4816ZM59.8589 41.4627V40.3927C59.8589 39.4664 59.2202 39.2306 58.7985 39.2306C58.3664 39.2306 57.7356 39.4664 57.7356 40.3927C57.7356 40.6982 57.7372 41.4602 57.7372 41.4602C57.7372 41.4602 57.7356 42.2052 57.7356 42.5243C57.7356 43.4498 58.3664 43.6914 58.7985 43.6914C59.2202 43.6914 59.8589 43.4498 59.8589 42.5243V41.4627ZM28.9448 38.2221C29.9566 38.1943 32.0119 38.8571 31.9969 41.2286C31.994 41.6486 31.9961 44.4858 31.9961 44.4858H29.3059V40.5533C29.3059 40.0308 28.8066 39.4502 28.0695 39.4502C27.3311 39.4502 26.7833 40.0308 26.7833 40.5533L26.7862 44.4858H24.0972L24.0951 38.4981L26.7858 38.496C26.7858 38.496 26.7829 38.9783 26.7858 39.1252C27.3692 38.5679 28.1383 38.2462 28.9448 38.2221ZM50.9527 38.2221C51.9629 38.1943 54.0177 38.8571 54.0049 41.2286C54.0007 41.6486 54.0024 44.4858 54.0024 44.4858H51.3121V40.5533C51.3121 40.0308 50.8137 39.4502 50.0757 39.4502C49.3378 39.4502 48.7883 40.0308 48.7883 40.5533L48.7925 44.4858H46.1043L46.106 38.4981L48.7925 38.496C48.7925 38.496 48.7883 38.9783 48.7925 39.1252C49.3762 38.5675 50.1458 38.2458 50.9527 38.2221ZM40.1818 40.5857C40.1768 40.0619 40.1876 39.7117 40.3594 39.4103C40.5727 39.0418 40.9616 38.8662 41.3136 38.8646H41.3119C41.6664 38.8662 42.0527 39.0418 42.2644 39.4103C42.4362 39.7112 42.4462 40.0619 42.4421 40.5857H40.1818ZM42.4304 42.3919C42.4304 42.3919 42.4329 42.4185 42.4329 42.7559C42.4329 43.8512 41.7124 44.0952 41.3136 44.0952C40.9131 44.0952 40.1797 43.8512 40.1797 42.7559C40.1797 42.4268 40.1839 41.5191 40.1839 41.5191C40.1839 41.5191 45.2834 41.5208 45.2834 41.5191C45.2834 39.6614 43.4913 38.1229 41.2887 38.1229C39.0873 38.1229 37.3015 39.6286 37.3015 41.4843C37.3015 43.3424 39.0873 44.8481 41.2887 44.8481C43.1157 44.8481 44.6583 43.8047 45.131 42.3894L42.4304 42.3919ZM71.4968 37.6245H71.1847V35.5738H71.967C72.4501 35.5738 72.6909 35.7527 72.6909 36.1565C72.6909 36.523 72.4605 36.6827 72.1584 36.7213L72.7411 37.6245H72.3941L71.8525 36.735H71.4968V37.6245ZM71.8679 36.4715C72.1314 36.4715 72.3646 36.4532 72.3646 36.1378C72.3646 35.8842 72.1343 35.8365 71.9197 35.8365H71.4964V36.4715H71.8679Z" fill="#AEAEAE"/>
<path fill-rule="evenodd" clip-rule="evenodd" d="M70.0658 36.5934C70.0658 35.5733 70.8942 34.8208 71.872 34.8208C72.8415 34.8208 73.6674 35.5737 73.6674 36.5934C73.6674 37.6239 72.8415 38.376 71.872 38.376C70.8942 38.376 70.0658 37.6243 70.0658 36.5934ZM71.872 38.0796C72.6768 38.0796 73.3101 37.4496 73.3101 36.5934C73.3101 35.7525 72.6772 35.1167 71.872 35.1167C71.059 35.1167 70.4244 35.7525 70.4244 36.5934C70.4244 37.45 71.059 38.0796 71.872 38.0796Z" fill="#AEAEAE"/>
</g>
<defs>
<clipPath id="clip0_9_279">
<rect width="80" height="80" fill="white"/>
</clipPath>
</defs>
</svg>
