<svg width="65" height="50" viewBox="0 0 65 50" fill="none" xmlns="http://www.w3.org/2000/svg">
<g clip-path="url(#clip0_9_286)">
<path fill-rule="evenodd" clip-rule="evenodd" d="M64.1027 38.0967C62.8457 39.6726 59.7661 40.7968 59.7661 40.7968L36.8565 48.9741V42.9435L53.7164 36.974C55.6297 36.2928 55.9235 35.3298 54.3683 34.8244C52.816 34.3175 50.0053 34.4627 48.0906 35.1468L36.8565 39.0786V32.82L37.504 32.6021C37.504 32.6021 40.7503 31.4605 45.3149 30.958C49.8796 30.4583 55.4689 31.0262 59.8567 32.6791C64.8014 34.2318 65.3583 36.5208 64.1027 38.0967ZM39.0372 27.828V12.4059C39.0372 10.5947 38.7011 8.92728 36.9909 8.45524C35.6813 8.03839 34.8687 9.24682 34.8687 11.0566V49.6771L24.3873 46.3713V0.322998C28.8438 1.14508 35.3364 3.08845 38.8268 4.25767C47.7032 7.28602 50.7127 11.0551 50.7127 19.5476C50.7127 27.825 45.5707 30.9623 39.0372 27.828ZM5.15516 42.3132C0.0789199 40.8927 -0.765903 37.9326 1.54786 36.2274C3.68623 34.653 7.32276 33.4678 7.32276 33.4678L22.3512 28.1577V34.2115L11.5366 38.0575C9.62629 38.7387 9.33251 39.7031 10.8848 40.2086C12.4385 40.714 15.2506 40.5703 17.1639 39.8876L22.3512 38.0169V43.433C22.0224 43.4911 21.6555 43.5492 21.3164 43.6059C16.1276 44.4483 10.6012 44.0968 5.15516 42.3132ZM60.7644 44.7112C61.4206 44.7112 62.036 44.9639 62.4993 45.4301C62.9627 45.8891 63.2185 46.502 63.2185 47.1527C63.2185 47.8063 62.9627 48.4164 62.4993 48.8753C62.036 49.3387 61.4206 49.5914 60.7644 49.5914C60.1081 49.5914 59.4942 49.3387 59.0294 48.8753C58.5661 48.4164 58.3118 47.8063 58.3118 47.1527C58.3118 45.8078 59.4109 44.7112 60.7644 44.7112ZM58.7239 47.1527C58.7239 47.6945 58.9359 48.2043 59.3217 48.5848C59.7062 48.9712 60.2206 49.1804 60.7644 49.1804C61.8913 49.1804 62.8048 48.2711 62.8048 47.1527C62.8048 46.6095 62.5943 46.0997 62.207 45.7177C61.8226 45.3314 61.3081 45.1237 60.7644 45.1237C60.2206 45.1237 59.7062 45.3314 59.3217 45.7177C58.9359 46.0997 58.7239 46.6095 58.7239 47.1527ZM61.5054 45.8383C61.7744 45.9559 61.9103 46.1825 61.9103 46.5049C61.9103 46.6705 61.8752 46.81 61.8036 46.9189C61.7524 46.9973 61.6793 47.0612 61.5975 47.1164C61.6618 47.1542 61.7188 47.1992 61.7612 47.2515C61.8197 47.327 61.8533 47.4476 61.8577 47.6117L61.8708 47.9588C61.8752 48.0518 61.8811 48.123 61.8957 48.1665C61.9103 48.2304 61.9381 48.2711 61.9732 48.2842L62.0097 48.3016V48.3409V48.4004V48.4599H61.9498H61.5157H61.4806L61.463 48.4295C61.4484 48.4004 61.4382 48.367 61.428 48.3234C61.4207 48.2842 61.4133 48.216 61.409 48.1114L61.387 47.68C61.3812 47.5304 61.33 47.4374 61.2335 47.3881C61.1736 47.3605 61.0742 47.3474 60.9398 47.3474H60.1958V48.4004V48.46H60.1344H59.7807H59.7208V48.4004V45.8049V45.7453H59.7807H60.9895C61.197 45.7453 61.3709 45.7758 61.5054 45.8383L61.5054 45.8383ZM60.1958 46.932H60.9529C61.1049 46.932 61.2262 46.9044 61.3125 46.8477C61.3914 46.7911 61.4294 46.688 61.4294 46.5384C61.4294 46.3757 61.3753 46.2696 61.2613 46.213C61.1985 46.1825 61.1108 46.1651 60.9997 46.1651H60.1958V46.932Z" fill="#AEAEAE"/>
</g>
<defs>
<clipPath id="clip0_9_286">
<rect width="65" height="50" fill="white"/>
</clipPath>
</defs>
</svg>
