<svg width="176" height="110" viewBox="0 0 176 110" fill="none" xmlns="http://www.w3.org/2000/svg">
<g clip-path="url(#clip0_9_261)">
<path d="M18.4389 35.846C17.9051 35.8439 17.3857 35.6727 16.9561 35.3571L13.3826 32.7716C13.0861 32.556 12.7285 32.4398 12.3613 32.4398C11.9942 32.4398 11.6366 32.556 11.3401 32.7716L7.76662 35.3571C7.33565 35.6689 6.81664 35.8368 6.28394 35.8368C5.75124 35.8368 5.23221 35.6689 4.80122 35.3572C4.37024 35.0454 4.04943 34.6057 3.88476 34.1012C3.7201 33.5967 3.72004 33.0533 3.88458 32.5487L5.24957 28.3654C5.36368 28.0178 5.36405 27.6432 5.25062 27.2955C5.1372 26.9477 4.91583 26.6448 4.61843 26.4304L1.04496 23.845C0.614016 23.5331 0.293264 23.0934 0.128674 22.5889C-0.0359156 22.0843 -0.0358909 21.5409 0.128738 21.0363C0.293366 20.5318 0.614151 20.0921 1.04512 19.7803C1.47609 19.4685 1.99512 19.3006 2.52783 19.3005H6.94478C7.31187 19.3012 7.66968 19.1858 7.96666 18.9709C8.26365 18.7561 8.48445 18.4528 8.59726 18.105L9.96226 13.9216C10.1268 13.417 10.4476 12.9773 10.8786 12.6654C11.3096 12.3535 11.8287 12.1855 12.3614 12.1855C12.8942 12.1855 13.4133 12.3535 13.8443 12.6654C14.2753 12.9773 14.5961 13.417 14.7606 13.9216L16.1254 18.105C16.2383 18.4529 16.4591 18.7561 16.7561 18.9709C17.0531 19.1858 17.411 19.3012 17.7781 19.3005H22.1951C22.7278 19.3006 23.2468 19.4685 23.6778 19.7803C24.1087 20.0921 24.4295 20.5318 24.5941 21.0363C24.7588 21.5409 24.7588 22.0843 24.5942 22.5889C24.4296 23.0934 24.1089 23.5331 23.6779 23.845L20.1044 26.4304C19.807 26.6448 19.5856 26.9477 19.4721 27.2954C19.3586 27.6432 19.359 28.0178 19.4731 28.3654L20.8381 32.5487C21.0087 33.0527 21.0117 33.5981 20.8466 34.104C20.6816 34.6098 20.3572 35.0492 19.9216 35.3571C19.492 35.6726 18.9727 35.8439 18.4389 35.846Z" fill="#00CE88"/>
<path d="M54.6505 35.846C54.1167 35.8439 53.5974 35.6726 53.1678 35.3571L49.5943 32.7716C49.2976 32.5565 48.94 32.4407 48.573 32.4407C48.206 32.4407 47.8484 32.5565 47.5516 32.7716L43.9782 35.3571C43.5472 35.6689 43.0282 35.8368 42.4955 35.8369C41.9628 35.8369 41.4438 35.669 41.0128 35.3572C40.5818 35.0454 40.261 34.6057 40.0964 34.1012C39.9318 33.5967 39.9317 33.0532 40.0963 32.5487L41.4611 28.3654C41.5752 28.0178 41.5756 27.6432 41.4622 27.2955C41.3488 26.9477 41.1274 26.6448 40.83 26.4304L37.2565 23.845C36.8256 23.5331 36.5048 23.0934 36.3402 22.5889C36.1756 22.0843 36.1757 21.5409 36.3403 21.0363C36.5049 20.5318 36.8257 20.0921 37.2567 19.7803C37.6876 19.4685 38.2067 19.3006 38.7394 19.3005H43.1563C43.5234 19.3012 43.8812 19.1858 44.1782 18.9709C44.4752 18.7561 44.696 18.4528 44.8088 18.105L46.1738 13.9216C46.3384 13.417 46.6592 12.9773 47.0902 12.6654C47.5212 12.3535 48.0402 12.1855 48.573 12.1855C49.1058 12.1855 49.6249 12.3535 50.0558 12.6654C50.4868 12.9773 50.8076 13.417 50.9722 13.9216L52.3372 18.105C52.45 18.4528 52.6708 18.7561 52.9678 18.9709C53.2648 19.1858 53.6226 19.3012 53.9897 19.3005H58.4066C58.9393 19.3006 59.4583 19.4685 59.8893 19.7803C60.3203 20.0921 60.6411 20.5318 60.8057 21.0363C60.9703 21.5409 60.9703 22.0843 60.8057 22.5889C60.6412 23.0934 60.3204 23.5331 59.8895 23.845L56.316 26.4304C56.0186 26.6448 55.7972 26.9477 55.6838 27.2955C55.5704 27.6432 55.5707 28.0178 55.6849 28.3654L57.0497 32.5487C57.2203 33.0527 57.2233 33.5981 57.0582 34.1039C56.8932 34.6098 56.5689 35.0492 56.1333 35.3571C55.7037 35.6726 55.1843 35.8439 54.6505 35.846Z" fill="#00CE88"/>
<path d="M90.4337 35.846C89.8999 35.8439 89.3806 35.6726 88.951 35.3571L85.3775 32.7716C85.0808 32.5565 84.7232 32.4407 84.3562 32.4407C83.9892 32.4407 83.6316 32.5565 83.3348 32.7716L79.7614 35.3571C79.3304 35.6689 78.8114 35.8368 78.2787 35.8369C77.746 35.8369 77.227 35.669 76.796 35.3572C76.365 35.0454 76.0442 34.6057 75.8796 34.1012C75.715 33.5967 75.7149 33.0532 75.8795 32.5487L77.2443 28.3654C77.3584 28.0178 77.3588 27.6432 77.2454 27.2955C77.132 26.9477 76.9106 26.6448 76.6132 26.4304L73.0397 23.845C72.6088 23.5331 72.288 23.0934 72.1234 22.5889C71.9588 22.0843 71.9589 21.5409 72.1235 21.0363C72.2881 20.5318 72.6089 20.0921 73.0399 19.7803C73.4708 19.4685 73.9899 19.3006 74.5226 19.3005H78.9395C79.3066 19.3012 79.6644 19.1858 79.9614 18.9709C80.2584 18.7561 80.4792 18.4528 80.592 18.105L81.957 13.9216C82.1216 13.417 82.4424 12.9773 82.8734 12.6654C83.3044 12.3535 83.8234 12.1855 84.3562 12.1855C84.889 12.1855 85.4081 12.3535 85.839 12.6654C86.27 12.9773 86.5908 13.417 86.7554 13.9216L88.1204 18.105C88.2332 18.4528 88.454 18.7561 88.751 18.9709C89.048 19.1858 89.4058 19.3012 89.7729 19.3005H94.1898C94.7225 19.3006 95.2415 19.4685 95.6725 19.7803C96.1035 20.0921 96.4243 20.5318 96.5889 21.0363C96.7535 21.5409 96.7535 22.0843 96.5889 22.5889C96.4244 23.0934 96.1036 23.5331 95.6727 23.845L92.0992 26.4304C91.8018 26.6448 91.5804 26.9477 91.467 27.2955C91.3536 27.6432 91.3539 28.0178 91.4681 28.3654L92.8329 32.5487C93.0035 33.0527 93.0065 33.5981 92.8414 34.1039C92.6764 34.6098 92.3521 35.0492 91.9165 35.3571C91.4869 35.6726 90.9675 35.8439 90.4337 35.846Z" fill="#00CE88"/>
<path d="M119.434 64.6605C118.9 64.6583 118.381 64.4871 117.951 64.1715L114.378 61.5861C114.081 61.371 113.723 61.2551 113.356 61.2551C112.989 61.2551 112.632 61.371 112.335 61.5861L108.761 64.1715C108.33 64.4833 107.811 64.6513 107.279 64.6513C106.746 64.6513 106.227 64.4834 105.796 64.1716C105.365 63.8598 105.044 63.4202 104.88 62.9157C104.715 62.4112 104.715 61.8677 104.88 61.3632L106.244 57.1798C106.358 56.8323 106.359 56.4577 106.245 56.1099C106.132 55.7622 105.911 55.4593 105.613 55.2449L102.04 52.6594C101.609 52.3476 101.288 51.9079 101.123 51.4033C100.959 50.8988 100.959 50.3553 101.123 49.8508C101.288 49.3463 101.609 48.9066 102.04 48.5948C102.471 48.283 102.99 48.115 103.523 48.115H107.94C108.307 48.1157 108.664 48.0002 108.961 47.7854C109.258 47.5705 109.479 47.2673 109.592 46.9194L110.957 42.7361C111.122 42.2315 111.442 41.7917 111.873 41.4799C112.304 41.168 112.823 41 113.356 41C113.889 41 114.408 41.168 114.839 41.4799C115.27 41.7917 115.591 42.2315 115.755 42.7361L117.12 46.9194C117.233 47.2673 117.454 47.5705 117.751 47.7854C118.048 48.0002 118.406 48.1157 118.773 48.115H123.19C123.723 48.115 124.242 48.283 124.673 48.5948C125.103 48.9066 125.424 49.3463 125.589 49.8508C125.754 50.3553 125.754 50.8988 125.589 51.4033C125.424 51.9079 125.104 52.3476 124.673 52.6594L121.099 55.2449C120.802 55.4593 120.58 55.7622 120.467 56.1099C120.354 56.4577 120.354 56.8323 120.468 57.1798L121.833 61.3632C122.003 61.8672 122.006 62.4125 121.841 62.9184C121.676 63.4242 121.352 63.8636 120.917 64.1715C120.487 64.4871 119.968 64.6583 119.434 64.6605Z" fill="#00CE88"/>
<path d="M145.624 42.407L136.846 49.9225L123.087 61.697L121.227 63.2892C121.057 63.4335 120.917 63.6101 120.816 63.8087C120.715 64.0072 120.654 64.2238 120.638 64.4459C120.614 64.7682 120.682 65.0907 120.836 65.3757C120.894 65.4831 120.964 65.5839 121.044 65.6763L122.042 66.8332L123.56 68.5923C123.588 68.6234 123.614 68.6525 123.645 68.682C123.948 68.9844 124.355 69.1616 124.784 69.1781C125.213 69.1945 125.632 69.0491 125.958 68.7708L141.559 55.4207L150.357 47.8907C150.698 47.5973 150.908 47.1813 150.942 46.7337C150.975 46.2862 150.829 45.8436 150.536 45.5031L150.005 44.8884L148.021 42.589C147.876 42.4201 147.699 42.2813 147.5 42.1807C147.301 42.0801 147.084 42.0196 146.861 42.0027C146.638 41.9858 146.414 42.0128 146.202 42.0822C145.99 42.1515 145.794 42.2619 145.624 42.407V42.407Z" fill="#00CE88"/>
<path d="M152.315 36.084C160.045 36.084 166.311 29.8437 166.311 22.146C166.311 14.4483 160.045 8.20801 152.315 8.20801C144.585 8.20801 138.319 14.4483 138.319 22.146C138.319 29.8437 144.585 36.084 152.315 36.084Z" fill="#00CE88"/>
<path d="M153.343 76.2717V108.307C153.344 108.756 153.523 109.186 153.842 109.504C154.16 109.821 154.592 110 155.043 110H158.903C159.354 110 159.786 109.821 160.105 109.504C160.423 109.186 160.602 108.756 160.603 108.307V76.2717C160.602 75.8228 160.423 75.3925 160.105 75.0751C159.786 74.7578 159.354 74.5793 158.903 74.5789H155.043C154.592 74.5793 154.16 74.7578 153.842 75.0751C153.523 75.3925 153.344 75.8228 153.343 76.2717Z" fill="#2F2E41"/>
<path d="M145.187 76.2717V108.307C145.187 108.529 145.23 108.75 145.316 108.955C145.401 109.16 145.527 109.347 145.684 109.504C145.842 109.661 146.03 109.786 146.236 109.871C146.442 109.956 146.663 110 146.886 110H150.746C151.197 110 151.629 109.821 151.948 109.504C152.266 109.186 152.446 108.756 152.446 108.307V76.2717C152.446 75.8228 152.266 75.3925 151.948 75.0751C151.629 74.7578 151.197 74.5793 150.746 74.5789H146.886C146.663 74.5788 146.442 74.6226 146.236 74.7077C146.03 74.7927 145.842 74.9174 145.684 75.0746C145.527 75.2318 145.401 75.4184 145.316 75.6238C145.23 75.8292 145.187 76.0494 145.187 76.2717Z" fill="#2F2E41"/>
<path d="M146.754 80.6603C145.301 80.659 143.868 80.332 142.56 79.7035C141.251 79.0751 140.102 78.1614 139.197 77.0302C138.292 75.899 137.654 74.5793 137.331 73.1692C137.008 71.759 137.008 70.2945 137.331 68.8844L141.698 49.8235C141.701 47.8519 142.249 45.9194 143.283 44.238C144.317 42.5567 145.796 41.1916 147.558 40.2928C149.32 39.394 151.297 38.9962 153.271 39.1431C155.245 39.29 157.141 39.9759 158.749 41.1255C160.139 42.1194 161.272 43.4282 162.055 44.9439C162.837 46.4597 163.247 48.1389 163.249 49.8432C163.255 50.0155 163.864 67.7418 164.12 75.9333C164.137 76.4938 164.043 77.0521 163.843 77.5763C163.643 78.1004 163.341 78.5801 162.954 78.9876C162.568 79.3952 162.104 79.7227 161.59 79.9512C161.076 80.1797 160.521 80.3048 159.958 80.3193L147.065 80.6556C146.961 80.6586 146.857 80.6603 146.754 80.6603Z" fill="#2F2E41"/>
<path d="M140.495 28.3072L140.51 27.7864C139.537 27.7594 138.679 27.6986 138.034 27.2297C137.852 27.0892 137.701 26.9111 137.594 26.7076C137.487 26.5041 137.424 26.2799 137.412 26.0504C137.4 25.9101 137.422 25.7691 137.474 25.6384C137.526 25.5076 137.608 25.3906 137.713 25.2965C138.141 24.9367 138.83 25.0532 139.331 25.2823L139.764 25.4799L138.934 19.4404L138.416 19.5111L139.122 24.6485C138.44 24.4489 137.808 24.5348 137.376 24.8988C137.209 25.0432 137.079 25.224 136.995 25.4269C136.91 25.6299 136.874 25.8495 136.889 26.0687C136.904 26.3771 136.987 26.6785 137.132 26.9518C137.276 27.225 137.479 27.4634 137.726 27.6503C138.554 28.2531 139.63 28.2831 140.495 28.3072Z" fill="#2F2E41"/>
<path d="M144.745 19.9541H141.928V20.475H144.745V19.9541Z" fill="#2F2E41"/>
<path d="M155.971 45.0097L156.453 56.5285L157.203 74.5789L157.305 77.0191C157.313 77.2416 157.366 77.4602 157.46 77.6623C157.554 77.8644 157.687 78.0459 157.852 78.1962C158.091 78.4149 158.387 78.5612 158.707 78.6181C158.828 78.6391 158.95 78.647 159.073 78.6416L160.603 78.5791L162.93 78.4827C162.972 78.4801 163.011 78.4775 163.053 78.4723C163.48 78.4227 163.871 78.2146 164.15 77.8896C164.429 77.5646 164.574 77.1467 164.557 76.7196L163.707 56.2524L163.226 44.7101C163.206 44.2618 163.009 43.8395 162.677 43.5358C162.345 43.2322 161.906 43.072 161.456 43.0903L160.642 43.1241L157.601 43.2491C157.378 43.2579 157.158 43.3105 156.956 43.4037C156.753 43.497 156.571 43.6292 156.419 43.7928C156.268 43.9563 156.15 44.148 156.074 44.3568C155.997 44.5656 155.962 44.7875 155.971 45.0097Z" fill="#00CE88"/>
<path d="M154.797 45.9837V54.8384C154.797 55.2794 154.971 55.7028 155.28 56.0186C155.589 56.3343 156.01 56.5173 156.453 56.5286C156.467 56.5308 156.482 56.5317 156.497 56.5312H162.773C162.874 56.5309 162.975 56.5213 163.074 56.5025C163.3 56.4632 163.516 56.3781 163.707 56.2525C163.942 56.098 164.135 55.888 164.269 55.6413C164.402 55.3945 164.473 55.1187 164.473 54.8384V45.9837C164.472 44.7064 163.962 43.4818 163.055 42.5786C162.148 41.6754 160.918 41.1673 159.635 41.1658C159.303 41.165 158.972 41.199 158.647 41.2674C157.559 41.4948 156.583 42.0876 155.883 42.9462C155.182 43.8048 154.799 44.8772 154.797 45.9837Z" fill="#2F2E41"/>
<path d="M136.46 49.6791C136.524 49.8895 136.63 50.0851 136.771 50.2547L140.746 55.0909C140.817 55.1803 140.899 55.2607 140.989 55.3305C141.293 55.5769 141.673 55.7113 142.064 55.7108C142.456 55.7103 142.836 55.5751 143.139 55.3279L150.019 49.7208C150.511 49.32 150.918 48.8266 151.219 48.269C151.519 47.7113 151.706 47.1002 151.769 46.4706C151.832 45.841 151.77 45.2052 151.586 44.5995C151.402 43.9938 151.1 43.43 150.698 42.9405C150.295 42.4509 149.8 42.045 149.24 41.7461C148.68 41.4472 148.066 41.2611 147.434 41.1983C146.802 41.1356 146.163 41.1974 145.555 41.3804C144.947 41.5634 144.381 41.8639 143.889 42.2647L137.009 47.8718C136.748 48.0854 136.557 48.371 136.459 48.6926C136.362 49.0143 136.362 49.3575 136.46 49.6791Z" fill="#2F2E41"/>
<path d="M150.172 13.9505C147.84 14.9172 145.329 15.9867 142.745 15.6904C140.628 15.4476 138.594 14.2151 138.106 12.037C137.64 9.95576 138.604 7.78463 140.139 6.3905C141.875 4.81349 144.272 4.05053 146.56 3.72872C147.943 3.5343 149.478 3.52172 150.753 4.16606C151.773 4.68183 152.69 5.61439 152.848 6.78666L153.828 6.52226C153.135 5.3527 153.467 3.93518 154.233 2.88459C155.155 1.6214 156.702 1.09534 158.222 1.0514C161.313 0.962032 164.475 2.39023 166.963 4.11889C169.414 5.82754 171.432 8.08134 172.856 10.7016C174.453 13.6449 175.333 17.1644 174.795 20.5042C174.249 23.9034 172.041 27.129 168.623 28.1522C167.976 28.3458 168.251 29.3573 168.902 29.1625C172.165 28.1857 174.575 25.3721 175.501 22.1635C176.565 18.4763 175.833 14.4382 174.201 11.0289C172.755 8.04874 170.595 5.46787 167.913 3.51298C165.231 1.54469 161.756 -0.0386063 158.369 0.000716952C156.423 0.0233061 154.538 0.71406 153.36 2.30846C152.354 3.66972 152.032 5.55175 152.92 7.05106C153.163 7.46264 153.973 7.32766 153.9 6.78666C153.531 4.04347 150.865 2.63324 148.298 2.57236C146.849 2.56683 145.408 2.77909 144.022 3.20195C142.741 3.55158 141.524 4.10531 140.42 4.84169C138.347 6.27082 136.889 8.55299 136.947 11.123C137.005 13.6869 138.74 15.6563 141.144 16.4146C144.316 17.4153 147.533 16.1707 150.451 14.9608C150.583 14.9199 150.695 14.8305 150.763 14.7109C150.831 14.5912 150.851 14.4502 150.819 14.3164C150.781 14.1828 150.692 14.0695 150.571 14.001C150.45 13.9325 150.306 13.9143 150.172 13.9505L150.172 13.9505Z" fill="#2F2E41"/>
</g>
<defs>
<clipPath id="clip0_9_261">
<rect width="176" height="110" fill="white"/>
</clipPath>
</defs>
</svg>
