<svg width="65" height="65" viewBox="0 0 65 65" fill="none" xmlns="http://www.w3.org/2000/svg">
<g clip-path="url(#clip0_9_288)">
<path d="M29.259 64.8663C24.2521 64.3871 19.183 62.59 14.8284 59.7504C11.1794 57.3709 10.3553 56.3928 10.3553 54.4407C10.3553 50.5196 14.669 43.6519 22.0494 35.8228C26.241 31.3764 32.0796 26.1645 32.711 26.3057C33.9383 26.58 43.7519 36.1472 47.4257 40.6509C53.2351 47.7727 55.9059 53.6039 54.5491 56.2037C53.5177 58.1799 47.1177 62.0424 42.4159 63.5263C38.5407 64.7493 33.4514 65.2676 29.259 64.8663ZM5.42691 50.3639C2.39464 45.7145 0.862647 41.1373 0.122989 34.5171C-0.121248 32.3311 -0.0337262 31.0807 0.677587 26.5939C1.56414 21.0017 4.75056 14.5322 8.57934 10.5507C10.2101 8.85499 10.3557 8.81368 12.3434 9.48293C14.7573 10.2956 17.3351 12.075 21.3329 15.688L23.6654 17.796L22.3917 19.3599C16.479 26.6198 10.2373 36.9103 7.88494 43.2769C6.60613 46.738 6.09033 50.2122 6.64057 51.6587C7.01206 52.6352 6.67084 52.2712 5.42691 50.3639ZM58.6525 51.1547C58.952 49.6931 58.5731 47.009 57.6852 44.3018C55.7621 38.4388 49.3344 27.5317 43.432 20.1159L41.5739 17.7815L43.5841 15.9367C46.2088 13.5279 48.0312 12.0856 49.9974 10.8608C51.5491 9.89422 53.7663 9.03859 54.7194 9.03859C55.3071 9.03859 57.3757 11.1843 59.0457 13.5259C61.6322 17.1525 63.535 21.5489 64.499 26.1255C65.1219 29.0826 65.1738 35.4124 64.5994 38.3622C64.1279 40.783 63.1325 43.9232 62.1615 46.0528C61.4339 47.6486 59.6242 50.7477 58.8312 51.7561C58.4235 52.2746 58.4231 52.2735 58.6525 51.1547H58.6525ZM29.7951 7.93147C27.0717 6.54926 22.8705 5.06554 20.5496 4.66636C19.736 4.52642 18.3481 4.44838 17.4654 4.49293C15.5506 4.58957 15.6361 4.48949 18.7079 3.03901C21.2617 1.83311 23.392 1.12399 26.2838 0.51712C29.5369 -0.165567 35.6516 -0.173579 38.8529 0.50065C42.3106 1.22888 46.3821 2.74321 48.6764 4.15431L49.3583 4.57371L47.7938 4.49475C44.6849 4.33784 40.1541 5.59314 35.2897 7.95913C33.8225 8.67277 32.546 9.24274 32.4531 9.22572C32.3602 9.20871 31.1641 8.62629 29.7951 7.93146V7.93147Z" fill="#AEAEAE"/>
</g>
<defs>
<clipPath id="clip0_9_288">
<rect width="65" height="65" fill="white"/>
</clipPath>
</defs>
</svg>
