<svg width="104" height="100" viewBox="0 0 104 100" fill="none" xmlns="http://www.w3.org/2000/svg">
<path fill-rule="evenodd" clip-rule="evenodd" d="M8.29513 39.7115C10.2223 27.7009 7.53355 13.6394 16.7149 5.62894C25.6664 -2.18102 39.0107 2.81773 50.9029 2.5375C63.3301 2.24465 77.1144 -3.85488 86.7464 3.97866C96.7285 12.0969 94.6682 27.0158 96.6116 39.7115C99.1652 56.3931 109.892 74.8745 99.656 88.3142C89.1621 102.093 68.2542 100.005 50.9029 99.7264C33.9383 99.4541 13.4967 100.58 3.69479 86.774C-5.8005 73.3995 5.69902 55.8913 8.29513 39.7115Z" fill="white"/>
<path d="M44.375 48.4688C55.5933 48.4688 64.6875 44.3764 64.6875 39.3281C64.6875 34.2799 55.5933 30.1875 44.375 30.1875C33.1567 30.1875 24.0625 34.2799 24.0625 39.3281C24.0625 44.3764 33.1567 48.4688 44.375 48.4688Z" stroke="#00CE88" stroke-width="3" stroke-linecap="round" stroke-linejoin="round"/>
<path d="M24.0625 39.3281V49.4844C24.0625 54.5371 33.1523 58.625 44.375 58.625C55.5977 58.625 64.6875 54.5371 64.6875 49.4844V39.3281" stroke="#00CE88" stroke-width="3" stroke-linecap="round" stroke-linejoin="round"/>
<path d="M36.25 47.707V57.8633" stroke="#00CE88" stroke-width="3" stroke-linecap="round" stroke-linejoin="round"/>
<path d="M64.6875 42.5527C73.9551 43.416 80.9375 47.0977 80.9375 51.5156C80.9375 56.5684 71.8477 60.6563 60.625 60.6563C55.6484 60.6563 51.0781 59.8438 47.5488 58.5234" stroke="#00CE88" stroke-width="3" stroke-linecap="round" stroke-linejoin="round"/>
<path d="M40.3125 58.4473V61.6719C40.3125 66.7246 49.4023 70.8125 60.625 70.8125C71.8477 70.8125 80.9375 66.7246 80.9375 61.6719V51.5156" stroke="#00CE88" stroke-width="3" stroke-linecap="round" stroke-linejoin="round"/>
<path d="M68.75 59.8945V70.0508" stroke="#00CE88" stroke-width="3" stroke-linecap="round" stroke-linejoin="round"/>
<path d="M52.5 47.707V70.0508" stroke="#00CE88" stroke-width="3" stroke-linecap="round" stroke-linejoin="round"/>
</svg>
