<svg width="104" height="100" viewBox="0 0 104 100" fill="none" xmlns="http://www.w3.org/2000/svg">
<path fill-rule="evenodd" clip-rule="evenodd" d="M8.29513 39.7115C10.2223 27.7009 7.53355 13.6394 16.7149 5.62894C25.6664 -2.18102 39.0107 2.81773 50.9029 2.5375C63.3301 2.24465 77.1144 -3.85488 86.7464 3.97866C96.7285 12.0969 94.6682 27.0158 96.6116 39.7115C99.1652 56.3931 109.892 74.8745 99.656 88.3142C89.1621 102.093 68.2542 100.005 50.9029 99.7264C33.9383 99.4541 13.4967 100.58 3.69479 86.774C-5.8005 73.3995 5.69902 55.8913 8.29513 39.7115Z" fill="white"/>
<path d="M76.875 63.0175V37.9824C76.8731 37.6207 76.7758 37.266 76.593 36.954C76.4103 36.6419 76.1484 36.3836 75.834 36.205L53.4902 23.6367C53.1892 23.4628 52.8476 23.3713 52.5 23.3713C52.1524 23.3713 51.8108 23.4628 51.5098 23.6367L29.166 36.205C28.8516 36.3836 28.5897 36.6419 28.407 36.954C28.2242 37.266 28.1269 37.6207 28.125 37.9824V63.0175C28.1269 63.3792 28.2242 63.7339 28.407 64.0459C28.5897 64.358 28.8516 64.6163 29.166 64.7949L51.5098 77.3632C51.8108 77.5371 52.1524 77.6286 52.5 77.6286C52.8476 77.6286 53.1892 77.5371 53.4902 77.3632L75.834 64.7949C76.1484 64.6163 76.4103 64.358 76.593 64.0459C76.7758 63.7339 76.8731 63.3792 76.875 63.0175V63.0175Z" stroke="#00CE88" stroke-width="3" stroke-linecap="round" stroke-linejoin="round"/>
<path d="M64.9414 56.7207V43.5176L40.3125 29.9336" stroke="#00CE88" stroke-width="3" stroke-linecap="round" stroke-linejoin="round"/>
<path d="M76.5957 36.9414L52.7285 50.5L28.4043 36.9414" stroke="#00CE88" stroke-width="3" stroke-linecap="round" stroke-linejoin="round"/>
<path d="M52.7285 50.5L52.5 77.6172" stroke="#00CE88" stroke-width="3" stroke-linecap="round" stroke-linejoin="round"/>
</svg>
